<?xml version="1.0" encoding="utf-8" standalone="no"?>
<!DOCTYPE svg PUBLIC "-//W3C//DTD SVG 1.1//EN"
  "http://www.w3.org/Graphics/SVG/1.1/DTD/svg11.dtd">
<!-- Created with matplotlib (http://matplotlib.org/) -->
<svg height="446pt" version="1.1" viewBox="0 0 726 446" width="726pt" xmlns="http://www.w3.org/2000/svg" xmlns:xlink="http://www.w3.org/1999/xlink">
 <defs>
  <style type="text/css">
*{stroke-linecap:butt;stroke-linejoin:round;}
  </style>
 </defs>
 <g id="figure_1">
  <g id="patch_1">
   <path d="
M0 446.4
L726.3 446.4
L726.3 0
L0 0
z
" style="fill:#ffffff;"/>
  </g>
  <g id="axes_1">
   <g id="patch_2">
    <path d="
M90.7875 401.76
L653.67 401.76
L653.67 44.64
L90.7875 44.64
z
" style="fill:#ffffff;"/>
   </g>
   <g id="line2d_1">
    <path clip-path="url(#p11af33ec47)" d="
M115.261 275.928
L164.207 236.981
L213.153 205.76
L262.1 179.293
L311.046 156.24
L359.992 135.814
L408.938 117.438
L457.885 100.852
L506.831 85.8796
L555.777 72.0235
L604.724 60.2809" style="fill:none;stroke:#ff0000;stroke-dasharray:6.000000,6.000000;stroke-dashoffset:0.0;"/>
    <defs>
     <path d="
M-5 5
L5 -5
M-5 -5
L5 5" id="m5d198760ff" style="stroke:#ff0000;stroke-width:0.5;"/>
    </defs>
    <g clip-path="url(#p11af33ec47)">
     <use style="fill:#ff0000;stroke:#ff0000;stroke-width:0.5;" x="115.260652174" xlink:href="#m5d198760ff" y="275.927717178"/>
     <use style="fill:#ff0000;stroke:#ff0000;stroke-width:0.5;" x="164.206956522" xlink:href="#m5d198760ff" y="236.980555979"/>
     <use style="fill:#ff0000;stroke:#ff0000;stroke-width:0.5;" x="213.15326087" xlink:href="#m5d198760ff" y="205.760008273"/>
     <use style="fill:#ff0000;stroke:#ff0000;stroke-width:0.5;" x="262.099565217" xlink:href="#m5d198760ff" y="179.292566472"/>
     <use style="fill:#ff0000;stroke:#ff0000;stroke-width:0.5;" x="311.045869565" xlink:href="#m5d198760ff" y="156.24040224"/>
     <use style="fill:#ff0000;stroke:#ff0000;stroke-width:0.5;" x="359.992173913" xlink:href="#m5d198760ff" y="135.814108093"/>
     <use style="fill:#ff0000;stroke:#ff0000;stroke-width:0.5;" x="408.938478261" xlink:href="#m5d198760ff" y="117.437963715"/>
     <use style="fill:#ff0000;stroke:#ff0000;stroke-width:0.5;" x="457.884782609" xlink:href="#m5d198760ff" y="100.852055069"/>
     <use style="fill:#ff0000;stroke:#ff0000;stroke-width:0.5;" x="506.831086957" xlink:href="#m5d198760ff" y="85.8796472657"/>
     <use style="fill:#ff0000;stroke:#ff0000;stroke-width:0.5;" x="555.777391304" xlink:href="#m5d198760ff" y="72.0235469634"/>
     <use style="fill:#ff0000;stroke:#ff0000;stroke-width:0.5;" x="604.723695652" xlink:href="#m5d198760ff" y="60.2809256485"/>
    </g>
   </g>
   <g id="line2d_2">
    <path clip-path="url(#p11af33ec47)" d="
M115.261 391.378
L164.207 374.492
L213.153 362.779
L262.1 353.85
L311.046 346.652
L359.992 340.63
L408.938 335.458
L457.885 330.927
L506.831 326.898
L555.777 323.272
L604.724 319.975" style="fill:none;stroke:#ff0000;stroke-dasharray:6.000000,6.000000;stroke-dashoffset:0.0;"/>
    <defs>
     <path d="
M0 5
C1.32602 5 2.5979 4.47317 3.53553 3.53553
C4.47317 2.5979 5 1.32602 5 0
C5 -1.32602 4.47317 -2.5979 3.53553 -3.53553
C2.5979 -4.47317 1.32602 -5 0 -5
C-1.32602 -5 -2.5979 -4.47317 -3.53553 -3.53553
C-4.47317 -2.5979 -5 -1.32602 -5 0
C-5 1.32602 -4.47317 2.5979 -3.53553 3.53553
C-2.5979 4.47317 -1.32602 5 0 5
z
" id="mbe04e61796" style="stroke:#ff0000;stroke-width:0.5;"/>
    </defs>
    <g clip-path="url(#p11af33ec47)">
     <use style="fill:none;stroke:#ff0000;stroke-width:0.5;" x="115.260652174" xlink:href="#mbe04e61796" y="391.377723934"/>
     <use style="fill:none;stroke:#ff0000;stroke-width:0.5;" x="164.206956522" xlink:href="#mbe04e61796" y="374.492135781"/>
     <use style="fill:none;stroke:#ff0000;stroke-width:0.5;" x="213.15326087" xlink:href="#mbe04e61796" y="362.778903819"/>
     <use style="fill:none;stroke:#ff0000;stroke-width:0.5;" x="262.099565217" xlink:href="#mbe04e61796" y="353.850389834"/>
     <use style="fill:none;stroke:#ff0000;stroke-width:0.5;" x="311.045869565" xlink:href="#mbe04e61796" y="346.652283248"/>
     <use style="fill:none;stroke:#ff0000;stroke-width:0.5;" x="359.992173913" xlink:href="#mbe04e61796" y="340.63019599"/>
     <use style="fill:none;stroke:#ff0000;stroke-width:0.5;" x="408.938478261" xlink:href="#mbe04e61796" y="335.457795266"/>
     <use style="fill:none;stroke:#ff0000;stroke-width:0.5;" x="457.884782609" xlink:href="#mbe04e61796" y="330.927236085"/>
     <use style="fill:none;stroke:#ff0000;stroke-width:0.5;" x="506.831086957" xlink:href="#mbe04e61796" y="326.898195427"/>
     <use style="fill:none;stroke:#ff0000;stroke-width:0.5;" x="555.777391304" xlink:href="#mbe04e61796" y="323.271586121"/>
     <use style="fill:none;stroke:#ff0000;stroke-width:0.5;" x="604.723695652" xlink:href="#mbe04e61796" y="319.974897676"/>
    </g>
   </g>
   <g id="patch_3">
    <path d="
M90.7875 44.64
L653.67 44.64" style="fill:none;stroke:#000000;stroke-linecap:square;stroke-linejoin:miter;"/>
   </g>
   <g id="patch_4">
    <path d="
M653.67 401.76
L653.67 44.64" style="fill:none;stroke:#000000;stroke-linecap:square;stroke-linejoin:miter;"/>
   </g>
   <g id="patch_5">
    <path d="
M90.7875 401.76
L653.67 401.76" style="fill:none;stroke:#000000;stroke-linecap:square;stroke-linejoin:miter;"/>
   </g>
   <g id="patch_6">
    <path d="
M90.7875 401.76
L90.7875 44.64" style="fill:none;stroke:#000000;stroke-linecap:square;stroke-linejoin:miter;"/>
   </g>
   <g id="matplotlib.axis_1">
    <g id="xtick_1">
     <g id="line2d_3">
      <defs>
       <path d="
M0 0
L0 -4" id="m93b0483c22" style="stroke:#000000;stroke-width:0.5;"/>
      </defs>
      <g>
       <use style="stroke:#000000;stroke-width:0.5;" x="139.733804348" xlink:href="#m93b0483c22" y="401.76"/>
      </g>
     </g>
     <g id="line2d_4">
      <defs>
       <path d="
M0 0
L0 4" id="m741efc42ff" style="stroke:#000000;stroke-width:0.5;"/>
      </defs>
      <g>
       <use style="stroke:#000000;stroke-width:0.5;" x="139.733804348" xlink:href="#m741efc42ff" y="44.64"/>
      </g>
     </g>
     <g id="text_1">
      <!-- 5 -->
      <defs>
       <path d="
M10.7969 72.9062
L49.5156 72.9062
L49.5156 64.5938
L19.8281 64.5938
L19.8281 46.7344
Q21.9688 47.4688 24.1094 47.8281
Q26.2656 48.1875 28.4219 48.1875
Q40.625 48.1875 47.75 41.5
Q54.8906 34.8125 54.8906 23.3906
Q54.8906 11.625 47.5625 5.09375
Q40.2344 -1.42188 26.9062 -1.42188
Q22.3125 -1.42188 17.5469 -0.640625
Q12.7969 0.140625 7.71875 1.70312
L7.71875 11.625
Q12.1094 9.23438 16.7969 8.0625
Q21.4844 6.89062 26.7031 6.89062
Q35.1562 6.89062 40.0781 11.3281
Q45.0156 15.7656 45.0156 23.3906
Q45.0156 31 40.0781 35.4375
Q35.1562 39.8906 26.7031 39.8906
Q22.75 39.8906 18.8125 39.0156
Q14.8906 38.1406 10.7969 36.2812
z
" id="BitstreamVeraSans-Roman-35"/>
      </defs>
      <g transform="translate(135.960054348 417.9175)scale(0.16 -0.16)">
       <use xlink:href="#BitstreamVeraSans-Roman-35"/>
      </g>
     </g>
    </g>
    <g id="xtick_2">
     <g id="line2d_5">
      <g>
       <use style="stroke:#000000;stroke-width:0.5;" x="262.099565217" xlink:href="#m93b0483c22" y="401.76"/>
      </g>
     </g>
     <g id="line2d_6">
      <g>
       <use style="stroke:#000000;stroke-width:0.5;" x="262.099565217" xlink:href="#m741efc42ff" y="44.64"/>
      </g>
     </g>
     <g id="text_2">
      <!-- 10 -->
      <defs>
       <path d="
M31.7812 66.4062
Q24.1719 66.4062 20.3281 58.9062
Q16.5 51.4219 16.5 36.375
Q16.5 21.3906 20.3281 13.8906
Q24.1719 6.39062 31.7812 6.39062
Q39.4531 6.39062 43.2812 13.8906
Q47.125 21.3906 47.125 36.375
Q47.125 51.4219 43.2812 58.9062
Q39.4531 66.4062 31.7812 66.4062
M31.7812 74.2188
Q44.0469 74.2188 50.5156 64.5156
Q56.9844 54.8281 56.9844 36.375
Q56.9844 17.9688 50.5156 8.26562
Q44.0469 -1.42188 31.7812 -1.42188
Q19.5312 -1.42188 13.0625 8.26562
Q6.59375 17.9688 6.59375 36.375
Q6.59375 54.8281 13.0625 64.5156
Q19.5312 74.2188 31.7812 74.2188" id="BitstreamVeraSans-Roman-30"/>
       <path d="
M12.4062 8.29688
L28.5156 8.29688
L28.5156 63.9219
L10.9844 60.4062
L10.9844 69.3906
L28.4219 72.9062
L38.2812 72.9062
L38.2812 8.29688
L54.3906 8.29688
L54.3906 0
L12.4062 0
z
" id="BitstreamVeraSans-Roman-31"/>
      </defs>
      <g transform="translate(253.329565217 417.9175)scale(0.16 -0.16)">
       <use xlink:href="#BitstreamVeraSans-Roman-31"/>
       <use x="63.623046875" xlink:href="#BitstreamVeraSans-Roman-30"/>
      </g>
     </g>
    </g>
    <g id="xtick_3">
     <g id="line2d_7">
      <g>
       <use style="stroke:#000000;stroke-width:0.5;" x="384.465326087" xlink:href="#m93b0483c22" y="401.76"/>
      </g>
     </g>
     <g id="line2d_8">
      <g>
       <use style="stroke:#000000;stroke-width:0.5;" x="384.465326087" xlink:href="#m741efc42ff" y="44.64"/>
      </g>
     </g>
     <g id="text_3">
      <!-- 15 -->
      <g transform="translate(375.862826087 417.9175)scale(0.16 -0.16)">
       <use xlink:href="#BitstreamVeraSans-Roman-31"/>
       <use x="63.623046875" xlink:href="#BitstreamVeraSans-Roman-35"/>
      </g>
     </g>
    </g>
    <g id="xtick_4">
     <g id="line2d_9">
      <g>
       <use style="stroke:#000000;stroke-width:0.5;" x="506.831086957" xlink:href="#m93b0483c22" y="401.76"/>
      </g>
     </g>
     <g id="line2d_10">
      <g>
       <use style="stroke:#000000;stroke-width:0.5;" x="506.831086957" xlink:href="#m741efc42ff" y="44.64"/>
      </g>
     </g>
     <g id="text_4">
      <!-- 20 -->
      <defs>
       <path d="
M19.1875 8.29688
L53.6094 8.29688
L53.6094 0
L7.32812 0
L7.32812 8.29688
Q12.9375 14.1094 22.625 23.8906
Q32.3281 33.6875 34.8125 36.5312
Q39.5469 41.8438 41.4219 45.5312
Q43.3125 49.2188 43.3125 52.7812
Q43.3125 58.5938 39.2344 62.25
Q35.1562 65.9219 28.6094 65.9219
Q23.9688 65.9219 18.8125 64.3125
Q13.6719 62.7031 7.8125 59.4219
L7.8125 69.3906
Q13.7656 71.7812 18.9375 73
Q24.125 74.2188 28.4219 74.2188
Q39.75 74.2188 46.4844 68.5469
Q53.2188 62.8906 53.2188 53.4219
Q53.2188 48.9219 51.5312 44.8906
Q49.8594 40.875 45.4062 35.4062
Q44.1875 33.9844 37.6406 27.2188
Q31.1094 20.4531 19.1875 8.29688" id="BitstreamVeraSans-Roman-32"/>
      </defs>
      <g transform="translate(497.768586957 417.9175)scale(0.16 -0.16)">
       <use xlink:href="#BitstreamVeraSans-Roman-32"/>
       <use x="63.623046875" xlink:href="#BitstreamVeraSans-Roman-30"/>
      </g>
     </g>
    </g>
    <g id="text_5">
     <!-- $n$ -->
     <defs>
      <path d="
M7.71875 1.70312
Q7.71875 2.29688 7.8125 2.59375
L15.2812 32.4219
Q16.0156 35.2031 16.0156 37.3125
Q16.0156 41.6094 13.0938 41.6094
Q9.96875 41.6094 8.45312 37.8594
Q6.9375 34.125 5.51562 28.4219
Q5.51562 28.125 5.21875 27.9531
Q4.9375 27.7812 4.6875 27.7812
L3.51562 27.7812
Q3.17188 27.7812 2.92188 28.1406
Q2.6875 28.5156 2.6875 28.8125
Q3.76562 33.1562 4.76562 36.1719
Q5.76562 39.2031 7.89062 41.6875
Q10.0156 44.1875 13.1875 44.1875
Q16.9375 44.1875 19.8125 41.8125
Q22.7031 39.4531 22.7031 35.7969
Q25.6875 39.7031 29.6875 41.9375
Q33.6875 44.1875 38.1875 44.1875
Q41.75 44.1875 44.3281 42.9688
Q46.9219 41.75 48.3594 39.2812
Q49.8125 36.8125 49.8125 33.4062
Q49.8125 29.2969 47.9688 23.4844
Q46.1406 17.6719 43.4062 10.5
Q42 7.23438 42 4.5
Q42 1.51562 44.2812 1.51562
Q48.1875 1.51562 50.7969 5.70312
Q53.4219 9.90625 54.5 14.7031
Q54.6875 15.2812 55.3281 15.2812
L56.5 15.2812
Q56.8906 15.2812 57.1562 15.0312
Q57.4219 14.7969 57.4219 14.4062
Q57.4219 14.3125 57.3281 14.1094
Q55.9531 8.45312 52.5625 3.65625
Q49.1719 -1.125 44.0938 -1.125
Q40.5781 -1.125 38.0781 1.29688
Q35.5938 3.71875 35.5938 7.17188
Q35.5938 9.03125 36.375 11.0781
Q37.6406 14.3594 39.2812 18.8906
Q40.9219 23.4375 41.9688 27.5781
Q43.0156 31.7344 43.0156 34.9062
Q43.0156 37.7031 41.8594 39.6562
Q40.7188 41.6094 37.9844 41.6094
Q34.3281 41.6094 31.25 39.9844
Q28.1719 38.375 25.875 35.7188
Q23.5781 33.0625 21.6875 29.3906
L14.8906 2.20312
Q14.5469 0.828125 13.3438 -0.140625
Q12.1562 -1.125 10.6875 -1.125
Q9.46875 -1.125 8.59375 -0.34375
Q7.71875 0.4375 7.71875 1.70312" id="Cmmi10-6e"/>
     </defs>
     <g transform="translate(367.34875 438.4025)scale(0.16 -0.16)">
      <use transform="translate(0.0 0.8125)" xlink:href="#Cmmi10-6e"/>
     </g>
    </g>
   </g>
   <g id="matplotlib.axis_2">
    <g id="ytick_1">
     <g id="line2d_11">
      <defs>
       <path d="
M0 0
L4 0" id="m728421d6d4" style="stroke:#000000;stroke-width:0.5;"/>
      </defs>
      <g>
       <use style="stroke:#000000;stroke-width:0.5;" x="90.7875" xlink:href="#m728421d6d4" y="401.76"/>
      </g>
     </g>
     <g id="text_6">
      <!-- $\mathdefault{10^{2}}$ -->
      <g style="fill:#ff0000;" transform="translate(55.9075 406.9925)scale(0.16 -0.16)">
       <use transform="translate(0.0 0.546875)" xlink:href="#BitstreamVeraSans-Roman-31"/>
       <use transform="translate(63.623046875 0.546875)" xlink:href="#BitstreamVeraSans-Roman-30"/>
       <use transform="translate(127.24609375 53.046875)scale(0.7)" xlink:href="#BitstreamVeraSans-Roman-32"/>
      </g>
     </g>
    </g>
    <g id="ytick_2">
     <g id="line2d_12">
      <g>
       <use style="stroke:#000000;stroke-width:0.5;" x="90.7875" xlink:href="#m728421d6d4" y="374.289230769"/>
      </g>
     </g>
     <g id="text_7">
      <!-- $\mathdefault{10^{3}}$ -->
      <defs>
       <path d="
M40.5781 39.3125
Q47.6562 37.7969 51.625 33
Q55.6094 28.2188 55.6094 21.1875
Q55.6094 10.4062 48.1875 4.48438
Q40.7656 -1.42188 27.0938 -1.42188
Q22.5156 -1.42188 17.6562 -0.515625
Q12.7969 0.390625 7.625 2.20312
L7.625 11.7188
Q11.7188 9.32812 16.5938 8.10938
Q21.4844 6.89062 26.8125 6.89062
Q36.0781 6.89062 40.9375 10.5469
Q45.7969 14.2031 45.7969 21.1875
Q45.7969 27.6406 41.2812 31.2656
Q36.7656 34.9062 28.7188 34.9062
L20.2188 34.9062
L20.2188 43.0156
L29.1094 43.0156
Q36.375 43.0156 40.2344 45.9219
Q44.0938 48.8281 44.0938 54.2969
Q44.0938 59.9062 40.1094 62.9062
Q36.1406 65.9219 28.7188 65.9219
Q24.6562 65.9219 20.0156 65.0312
Q15.375 64.1562 9.8125 62.3125
L9.8125 71.0938
Q15.4375 72.6562 20.3438 73.4375
Q25.25 74.2188 29.5938 74.2188
Q40.8281 74.2188 47.3594 69.1094
Q53.9062 64.0156 53.9062 55.3281
Q53.9062 49.2656 50.4375 45.0938
Q46.9688 40.9219 40.5781 39.3125" id="BitstreamVeraSans-Roman-33"/>
      </defs>
      <g style="fill:#ff0000;" transform="translate(55.9075 379.521730769)scale(0.16 -0.16)">
       <use transform="translate(0.0 0.546875)" xlink:href="#BitstreamVeraSans-Roman-31"/>
       <use transform="translate(63.623046875 0.546875)" xlink:href="#BitstreamVeraSans-Roman-30"/>
       <use transform="translate(127.24609375 53.046875)scale(0.7)" xlink:href="#BitstreamVeraSans-Roman-33"/>
      </g>
     </g>
    </g>
    <g id="ytick_3">
     <g id="line2d_13">
      <g>
       <use style="stroke:#000000;stroke-width:0.5;" x="90.7875" xlink:href="#m728421d6d4" y="346.818461538"/>
      </g>
     </g>
     <g id="text_8">
      <!-- $\mathdefault{10^{4}}$ -->
      <defs>
       <path d="
M37.7969 64.3125
L12.8906 25.3906
L37.7969 25.3906
z

M35.2031 72.9062
L47.6094 72.9062
L47.6094 25.3906
L58.0156 25.3906
L58.0156 17.1875
L47.6094 17.1875
L47.6094 0
L37.7969 0
L37.7969 17.1875
L4.89062 17.1875
L4.89062 26.7031
z
" id="BitstreamVeraSans-Roman-34"/>
      </defs>
      <g style="fill:#ff0000;" transform="translate(55.9075 351.970961538)scale(0.16 -0.16)">
       <use transform="translate(0.0 0.465625)" xlink:href="#BitstreamVeraSans-Roman-31"/>
       <use transform="translate(63.623046875 0.465625)" xlink:href="#BitstreamVeraSans-Roman-30"/>
       <use transform="translate(127.24609375 52.965625)scale(0.7)" xlink:href="#BitstreamVeraSans-Roman-34"/>
      </g>
     </g>
    </g>
    <g id="ytick_4">
     <g id="line2d_14">
      <g>
       <use style="stroke:#000000;stroke-width:0.5;" x="90.7875" xlink:href="#m728421d6d4" y="319.347692308"/>
      </g>
     </g>
     <g id="text_9">
      <!-- $\mathdefault{10^{5}}$ -->
      <g style="fill:#ff0000;" transform="translate(55.9075 324.500192308)scale(0.16 -0.16)">
       <use transform="translate(0.0 0.465625)" xlink:href="#BitstreamVeraSans-Roman-31"/>
       <use transform="translate(63.623046875 0.465625)" xlink:href="#BitstreamVeraSans-Roman-30"/>
       <use transform="translate(127.24609375 52.965625)scale(0.7)" xlink:href="#BitstreamVeraSans-Roman-35"/>
      </g>
     </g>
    </g>
    <g id="ytick_5">
     <g id="line2d_15">
      <g>
       <use style="stroke:#000000;stroke-width:0.5;" x="90.7875" xlink:href="#m728421d6d4" y="291.876923077"/>
      </g>
     </g>
     <g id="text_10">
      <!-- $\mathdefault{10^{6}}$ -->
      <defs>
       <path d="
M33.0156 40.375
Q26.375 40.375 22.4844 35.8281
Q18.6094 31.2969 18.6094 23.3906
Q18.6094 15.5312 22.4844 10.9531
Q26.375 6.39062 33.0156 6.39062
Q39.6562 6.39062 43.5312 10.9531
Q47.4062 15.5312 47.4062 23.3906
Q47.4062 31.2969 43.5312 35.8281
Q39.6562 40.375 33.0156 40.375
M52.5938 71.2969
L52.5938 62.3125
Q48.875 64.0625 45.0938 64.9844
Q41.3125 65.9219 37.5938 65.9219
Q27.8281 65.9219 22.6719 59.3281
Q17.5312 52.7344 16.7969 39.4062
Q19.6719 43.6562 24.0156 45.9219
Q28.375 48.1875 33.5938 48.1875
Q44.5781 48.1875 50.9531 41.5156
Q57.3281 34.8594 57.3281 23.3906
Q57.3281 12.1562 50.6875 5.35938
Q44.0469 -1.42188 33.0156 -1.42188
Q20.3594 -1.42188 13.6719 8.26562
Q6.98438 17.9688 6.98438 36.375
Q6.98438 53.6562 15.1875 63.9375
Q23.3906 74.2188 37.2031 74.2188
Q40.9219 74.2188 44.7031 73.4844
Q48.4844 72.75 52.5938 71.2969" id="BitstreamVeraSans-Roman-36"/>
      </defs>
      <g style="fill:#ff0000;" transform="translate(55.9075 297.109423077)scale(0.16 -0.16)">
       <use transform="translate(0.0 0.546875)" xlink:href="#BitstreamVeraSans-Roman-31"/>
       <use transform="translate(63.623046875 0.546875)" xlink:href="#BitstreamVeraSans-Roman-30"/>
       <use transform="translate(127.24609375 53.046875)scale(0.7)" xlink:href="#BitstreamVeraSans-Roman-36"/>
      </g>
     </g>
    </g>
    <g id="ytick_6">
     <g id="line2d_16">
      <g>
       <use style="stroke:#000000;stroke-width:0.5;" x="90.7875" xlink:href="#m728421d6d4" y="264.406153846"/>
      </g>
     </g>
     <g id="text_11">
      <!-- $\mathdefault{10^{7}}$ -->
      <defs>
       <path d="
M8.20312 72.9062
L55.0781 72.9062
L55.0781 68.7031
L28.6094 0
L18.3125 0
L43.2188 64.5938
L8.20312 64.5938
z
" id="BitstreamVeraSans-Roman-37"/>
      </defs>
      <g style="fill:#ff0000;" transform="translate(55.9075 269.558653846)scale(0.16 -0.16)">
       <use transform="translate(0.0 0.465625)" xlink:href="#BitstreamVeraSans-Roman-31"/>
       <use transform="translate(63.623046875 0.465625)" xlink:href="#BitstreamVeraSans-Roman-30"/>
       <use transform="translate(127.24609375 52.965625)scale(0.7)" xlink:href="#BitstreamVeraSans-Roman-37"/>
      </g>
     </g>
    </g>
    <g id="ytick_7">
     <g id="line2d_17">
      <g>
       <use style="stroke:#000000;stroke-width:0.5;" x="90.7875" xlink:href="#m728421d6d4" y="236.935384615"/>
      </g>
     </g>
     <g id="text_12">
      <!-- $\mathdefault{10^{8}}$ -->
      <defs>
       <path d="
M31.7812 34.625
Q24.75 34.625 20.7188 30.8594
Q16.7031 27.0938 16.7031 20.5156
Q16.7031 13.9219 20.7188 10.1562
Q24.75 6.39062 31.7812 6.39062
Q38.8125 6.39062 42.8594 10.1719
Q46.9219 13.9688 46.9219 20.5156
Q46.9219 27.0938 42.8906 30.8594
Q38.875 34.625 31.7812 34.625
M21.9219 38.8125
Q15.5781 40.375 12.0312 44.7188
Q8.5 49.0781 8.5 55.3281
Q8.5 64.0625 14.7188 69.1406
Q20.9531 74.2188 31.7812 74.2188
Q42.6719 74.2188 48.875 69.1406
Q55.0781 64.0625 55.0781 55.3281
Q55.0781 49.0781 51.5312 44.7188
Q48 40.375 41.7031 38.8125
Q48.8281 37.1562 52.7969 32.3125
Q56.7812 27.4844 56.7812 20.5156
Q56.7812 9.90625 50.3125 4.23438
Q43.8438 -1.42188 31.7812 -1.42188
Q19.7344 -1.42188 13.25 4.23438
Q6.78125 9.90625 6.78125 20.5156
Q6.78125 27.4844 10.7812 32.3125
Q14.7969 37.1562 21.9219 38.8125
M18.3125 54.3906
Q18.3125 48.7344 21.8438 45.5625
Q25.3906 42.3906 31.7812 42.3906
Q38.1406 42.3906 41.7188 45.5625
Q45.3125 48.7344 45.3125 54.3906
Q45.3125 60.0625 41.7188 63.2344
Q38.1406 66.4062 31.7812 66.4062
Q25.3906 66.4062 21.8438 63.2344
Q18.3125 60.0625 18.3125 54.3906" id="BitstreamVeraSans-Roman-38"/>
      </defs>
      <g style="fill:#ff0000;" transform="translate(55.9075 242.167884615)scale(0.16 -0.16)">
       <use transform="translate(0.0 0.546875)" xlink:href="#BitstreamVeraSans-Roman-31"/>
       <use transform="translate(63.623046875 0.546875)" xlink:href="#BitstreamVeraSans-Roman-30"/>
       <use transform="translate(127.24609375 53.046875)scale(0.7)" xlink:href="#BitstreamVeraSans-Roman-38"/>
      </g>
     </g>
    </g>
    <g id="ytick_8">
     <g id="line2d_18">
      <g>
       <use style="stroke:#000000;stroke-width:0.5;" x="90.7875" xlink:href="#m728421d6d4" y="209.464615385"/>
      </g>
     </g>
     <g id="text_13">
      <!-- $\mathdefault{10^{9}}$ -->
      <defs>
       <path d="
M10.9844 1.51562
L10.9844 10.5
Q14.7031 8.73438 18.5 7.8125
Q22.3125 6.89062 25.9844 6.89062
Q35.75 6.89062 40.8906 13.4531
Q46.0469 20.0156 46.7812 33.4062
Q43.9531 29.2031 39.5938 26.9531
Q35.25 24.7031 29.9844 24.7031
Q19.0469 24.7031 12.6719 31.3125
Q6.29688 37.9375 6.29688 49.4219
Q6.29688 60.6406 12.9375 67.4219
Q19.5781 74.2188 30.6094 74.2188
Q43.2656 74.2188 49.9219 64.5156
Q56.5938 54.8281 56.5938 36.375
Q56.5938 19.1406 48.4062 8.85938
Q40.2344 -1.42188 26.4219 -1.42188
Q22.7031 -1.42188 18.8906 -0.6875
Q15.0938 0.046875 10.9844 1.51562
M30.6094 32.4219
Q37.25 32.4219 41.125 36.9531
Q45.0156 41.5 45.0156 49.4219
Q45.0156 57.2812 41.125 61.8438
Q37.25 66.4062 30.6094 66.4062
Q23.9688 66.4062 20.0938 61.8438
Q16.2188 57.2812 16.2188 49.4219
Q16.2188 41.5 20.0938 36.9531
Q23.9688 32.4219 30.6094 32.4219" id="BitstreamVeraSans-Roman-39"/>
      </defs>
      <g style="fill:#ff0000;" transform="translate(55.9075 214.697115385)scale(0.16 -0.16)">
       <use transform="translate(0.0 0.546875)" xlink:href="#BitstreamVeraSans-Roman-31"/>
       <use transform="translate(63.623046875 0.546875)" xlink:href="#BitstreamVeraSans-Roman-30"/>
       <use transform="translate(127.24609375 53.046875)scale(0.7)" xlink:href="#BitstreamVeraSans-Roman-39"/>
      </g>
     </g>
    </g>
    <g id="ytick_9">
     <g id="line2d_19">
      <g>
       <use style="stroke:#000000;stroke-width:0.5;" x="90.7875" xlink:href="#m728421d6d4" y="181.993846154"/>
      </g>
     </g>
     <g id="text_14">
      <!-- $\mathdefault{10^{10}}$ -->
      <g style="fill:#ff0000;" transform="translate(48.7075 187.226346154)scale(0.16 -0.16)">
       <use transform="translate(0.0 0.546875)" xlink:href="#BitstreamVeraSans-Roman-31"/>
       <use transform="translate(63.623046875 0.546875)" xlink:href="#BitstreamVeraSans-Roman-30"/>
       <use transform="translate(127.24609375 53.046875)scale(0.7)" xlink:href="#BitstreamVeraSans-Roman-31"/>
       <use transform="translate(171.782226562 53.046875)scale(0.7)" xlink:href="#BitstreamVeraSans-Roman-30"/>
      </g>
     </g>
    </g>
    <g id="ytick_10">
     <g id="line2d_20">
      <g>
       <use style="stroke:#000000;stroke-width:0.5;" x="90.7875" xlink:href="#m728421d6d4" y="154.523076923"/>
      </g>
     </g>
     <g id="text_15">
      <!-- $\mathdefault{10^{11}}$ -->
      <g style="fill:#ff0000;" transform="translate(48.7075 159.675576923)scale(0.16 -0.16)">
       <use transform="translate(0.0 0.465625)" xlink:href="#BitstreamVeraSans-Roman-31"/>
       <use transform="translate(63.623046875 0.465625)" xlink:href="#BitstreamVeraSans-Roman-30"/>
       <use transform="translate(127.24609375 52.965625)scale(0.7)" xlink:href="#BitstreamVeraSans-Roman-31"/>
       <use transform="translate(171.782226562 52.965625)scale(0.7)" xlink:href="#BitstreamVeraSans-Roman-31"/>
      </g>
     </g>
    </g>
    <g id="ytick_11">
     <g id="line2d_21">
      <g>
       <use style="stroke:#000000;stroke-width:0.5;" x="90.7875" xlink:href="#m728421d6d4" y="127.052307692"/>
      </g>
     </g>
     <g id="text_16">
      <!-- $\mathdefault{10^{12}}$ -->
      <g style="fill:#ff0000;" transform="translate(48.7075 132.284807692)scale(0.16 -0.16)">
       <use transform="translate(0.0 0.546875)" xlink:href="#BitstreamVeraSans-Roman-31"/>
       <use transform="translate(63.623046875 0.546875)" xlink:href="#BitstreamVeraSans-Roman-30"/>
       <use transform="translate(127.24609375 53.046875)scale(0.7)" xlink:href="#BitstreamVeraSans-Roman-31"/>
       <use transform="translate(171.782226562 53.046875)scale(0.7)" xlink:href="#BitstreamVeraSans-Roman-32"/>
      </g>
     </g>
    </g>
    <g id="ytick_12">
     <g id="line2d_22">
      <g>
       <use style="stroke:#000000;stroke-width:0.5;" x="90.7875" xlink:href="#m728421d6d4" y="99.5815384615"/>
      </g>
     </g>
     <g id="text_17">
      <!-- $\mathdefault{10^{13}}$ -->
      <g style="fill:#ff0000;" transform="translate(48.7075 104.814038462)scale(0.16 -0.16)">
       <use transform="translate(0.0 0.546875)" xlink:href="#BitstreamVeraSans-Roman-31"/>
       <use transform="translate(63.623046875 0.546875)" xlink:href="#BitstreamVeraSans-Roman-30"/>
       <use transform="translate(127.24609375 53.046875)scale(0.7)" xlink:href="#BitstreamVeraSans-Roman-31"/>
       <use transform="translate(171.782226562 53.046875)scale(0.7)" xlink:href="#BitstreamVeraSans-Roman-33"/>
      </g>
     </g>
    </g>
    <g id="ytick_13">
     <g id="line2d_23">
      <g>
       <use style="stroke:#000000;stroke-width:0.5;" x="90.7875" xlink:href="#m728421d6d4" y="72.1107692308"/>
      </g>
     </g>
     <g id="text_18">
      <!-- $\mathdefault{10^{14}}$ -->
      <g style="fill:#ff0000;" transform="translate(48.7075 77.2632692308)scale(0.16 -0.16)">
       <use transform="translate(0.0 0.465625)" xlink:href="#BitstreamVeraSans-Roman-31"/>
       <use transform="translate(63.623046875 0.465625)" xlink:href="#BitstreamVeraSans-Roman-30"/>
       <use transform="translate(127.24609375 52.965625)scale(0.7)" xlink:href="#BitstreamVeraSans-Roman-31"/>
       <use transform="translate(171.782226562 52.965625)scale(0.7)" xlink:href="#BitstreamVeraSans-Roman-34"/>
      </g>
     </g>
    </g>
    <g id="ytick_14">
     <g id="line2d_24">
      <g>
       <use style="stroke:#000000;stroke-width:0.5;" x="90.7875" xlink:href="#m728421d6d4" y="44.64"/>
      </g>
     </g>
     <g id="text_19">
      <!-- $\mathdefault{10^{15}}$ -->
      <g style="fill:#ff0000;" transform="translate(48.7075 49.7925)scale(0.16 -0.16)">
       <use transform="translate(0.0 0.465625)" xlink:href="#BitstreamVeraSans-Roman-31"/>
       <use transform="translate(63.623046875 0.465625)" xlink:href="#BitstreamVeraSans-Roman-30"/>
       <use transform="translate(127.24609375 52.965625)scale(0.7)" xlink:href="#BitstreamVeraSans-Roman-31"/>
       <use transform="translate(171.782226562 52.965625)scale(0.7)" xlink:href="#BitstreamVeraSans-Roman-35"/>
      </g>
     </g>
    </g>
    <g id="ytick_15">
     <g id="line2d_25">
      <defs>
       <path d="
M0 0
L2 0" id="mf0c55a9a47" style="stroke:#000000;stroke-width:0.5;"/>
      </defs>
      <g>
       <use style="stroke:#000000;stroke-width:0.5;" x="90.7875" xlink:href="#mf0c55a9a47" y="401.76"/>
      </g>
     </g>
    </g>
    <g id="ytick_16">
     <g id="line2d_26">
      <g>
       <use style="stroke:#000000;stroke-width:0.5;" x="90.7875" xlink:href="#mf0c55a9a47" y="374.289230769"/>
      </g>
     </g>
    </g>
    <g id="ytick_17">
     <g id="line2d_27">
      <g>
       <use style="stroke:#000000;stroke-width:0.5;" x="90.7875" xlink:href="#mf0c55a9a47" y="346.818461538"/>
      </g>
     </g>
    </g>
    <g id="ytick_18">
     <g id="line2d_28">
      <g>
       <use style="stroke:#000000;stroke-width:0.5;" x="90.7875" xlink:href="#mf0c55a9a47" y="319.347692308"/>
      </g>
     </g>
    </g>
    <g id="ytick_19">
     <g id="line2d_29">
      <g>
       <use style="stroke:#000000;stroke-width:0.5;" x="90.7875" xlink:href="#mf0c55a9a47" y="291.876923077"/>
      </g>
     </g>
    </g>
    <g id="ytick_20">
     <g id="line2d_30">
      <g>
       <use style="stroke:#000000;stroke-width:0.5;" x="90.7875" xlink:href="#mf0c55a9a47" y="264.406153846"/>
      </g>
     </g>
    </g>
    <g id="ytick_21">
     <g id="line2d_31">
      <g>
       <use style="stroke:#000000;stroke-width:0.5;" x="90.7875" xlink:href="#mf0c55a9a47" y="236.935384615"/>
      </g>
     </g>
    </g>
    <g id="ytick_22">
     <g id="line2d_32">
      <g>
       <use style="stroke:#000000;stroke-width:0.5;" x="90.7875" xlink:href="#mf0c55a9a47" y="209.464615385"/>
      </g>
     </g>
    </g>
    <g id="ytick_23">
     <g id="line2d_33">
      <g>
       <use style="stroke:#000000;stroke-width:0.5;" x="90.7875" xlink:href="#mf0c55a9a47" y="181.993846154"/>
      </g>
     </g>
    </g>
    <g id="ytick_24">
     <g id="line2d_34">
      <g>
       <use style="stroke:#000000;stroke-width:0.5;" x="90.7875" xlink:href="#mf0c55a9a47" y="154.523076923"/>
      </g>
     </g>
    </g>
    <g id="ytick_25">
     <g id="line2d_35">
      <g>
       <use style="stroke:#000000;stroke-width:0.5;" x="90.7875" xlink:href="#mf0c55a9a47" y="127.052307692"/>
      </g>
     </g>
    </g>
    <g id="ytick_26">
     <g id="line2d_36">
      <g>
       <use style="stroke:#000000;stroke-width:0.5;" x="90.7875" xlink:href="#mf0c55a9a47" y="99.5815384615"/>
      </g>
     </g>
    </g>
    <g id="ytick_27">
     <g id="line2d_37">
      <g>
       <use style="stroke:#000000;stroke-width:0.5;" x="90.7875" xlink:href="#mf0c55a9a47" y="72.1107692308"/>
      </g>
     </g>
    </g>
    <g id="ytick_28">
     <g id="line2d_38">
      <g>
       <use style="stroke:#000000;stroke-width:0.5;" x="90.7875" xlink:href="#mf0c55a9a47" y="44.64"/>
      </g>
     </g>
    </g>
    <g id="text_20">
     <!-- $\kappa$ -->
     <defs>
      <path d="
M5.32812 1.70312
Q5.32812 2.29688 5.42188 2.59375
L14.9844 41.0156
Q15.375 42.4375 16.5469 43.3125
Q17.7188 44.1875 19.1875 44.1875
Q20.4531 44.1875 21.3281 43.4219
Q22.2188 42.6719 22.2188 41.4062
Q22.2188 41.1094 22.1875 40.9375
Q22.1719 40.7656 22.125 40.5781
L18.5 26.125
Q22.5156 27.4375 29.1562 32.9844
Q35.7969 38.5312 39.1875 40.8125
Q42.5781 43.1094 47.5156 43.1094
Q49.125 43.1094 50.2188 42.1094
Q51.3125 41.1094 51.3125 39.4062
Q51.3125 37.0625 49.625 35.4219
Q47.9531 33.7969 45.6094 33.7969
Q44 33.7969 42.8906 34.8438
Q41.7969 35.8906 41.7969 37.5
Q41.7969 38.625 42.1875 39.4062
Q39.7969 38.4219 37.2812 36.6562
Q34.7656 34.9062 32.7188 33.125
Q30.6719 31.3438 27.7812 28.9531
Q24.9062 26.5625 22.6094 25.2969
Q26.7031 25.2969 31 24.4062
Q35.2969 23.5312 38.4531 21.1875
Q41.6094 18.8438 41.6094 14.7969
Q41.6094 13.1875 41.2188 12.0156
Q40.2812 8.01562 40.2812 6
Q40.2812 1.51562 43.4062 1.51562
Q46.9688 1.51562 48.875 5.46875
Q50.7812 9.42188 52 14.7031
Q52.2031 15.2812 52.7812 15.2812
L54 15.2812
Q54.3906 15.2812 54.6406 15.0156
Q54.8906 14.75 54.8906 14.4062
Q54.8906 14.3125 54.7812 14.1094
Q51.125 -1.125 43.2188 -1.125
Q40.375 -1.125 38.2031 0.1875
Q36.0312 1.51562 34.8594 3.78125
Q33.6875 6.0625 33.6875 8.89062
Q33.6875 10.6875 34.0781 12.2031
Q34.4219 13.5781 34.4219 14.5
Q34.4219 17.7188 31.5625 19.5781
Q28.7188 21.4375 24.8281 22.1094
Q20.9531 22.7969 17.5781 22.7969
L12.5 2.20312
Q12.1562 0.828125 10.9531 -0.140625
Q9.76562 -1.125 8.29688 -1.125
Q7.07812 -1.125 6.20312 -0.34375
Q5.32812 0.4375 5.32812 1.70312" id="Cmmi10-2219"/>
     </defs>
     <g style="fill:#ff0000;" transform="translate(40.38 227.84)rotate(-90.0)scale(0.16 -0.16)">
      <use transform="translate(0.0 0.8125)" xlink:href="#Cmmi10-2219"/>
     </g>
    </g>
   </g>
  </g>
  <g id="axes_2">
   <g id="line2d_39">
    <path clip-path="url(#p11af33ec47)" d="
M115.261 170.454
L164.207 209.401
L213.153 240.622
L262.1 267.089
L311.046 290.141
L359.992 310.567
L408.938 328.944
L457.885 345.53
L506.831 360.502
L555.777 374.358
L604.724 386.101" style="fill:none;stroke:#0000ff;stroke-dasharray:6.000000,6.000000;stroke-dashoffset:0.0;"/>
    <defs>
     <path d="
M-5 5
L5 -5
M-5 -5
L5 5" id="m494be3f0a3" style="stroke:#0000ff;stroke-width:0.5;"/>
    </defs>
    <g clip-path="url(#p11af33ec47)">
     <use style="fill:#0000ff;stroke:#0000ff;stroke-width:0.5;" x="115.260652174" xlink:href="#m494be3f0a3" y="170.454082488"/>
     <use style="fill:#0000ff;stroke:#0000ff;stroke-width:0.5;" x="164.206956522" xlink:href="#m494be3f0a3" y="209.401125332"/>
     <use style="fill:#0000ff;stroke:#0000ff;stroke-width:0.5;" x="213.15326087" xlink:href="#m494be3f0a3" y="240.621630045"/>
     <use style="fill:#0000ff;stroke:#0000ff;stroke-width:0.5;" x="262.099565217" xlink:href="#m494be3f0a3" y="267.089052694"/>
     <use style="fill:#0000ff;stroke:#0000ff;stroke-width:0.5;" x="311.045869565" xlink:href="#m494be3f0a3" y="290.141207259"/>
     <use style="fill:#0000ff;stroke:#0000ff;stroke-width:0.5;" x="359.992173913" xlink:href="#m494be3f0a3" y="310.567496024"/>
     <use style="fill:#0000ff;stroke:#0000ff;stroke-width:0.5;" x="408.938478261" xlink:href="#m494be3f0a3" y="328.943637178"/>
     <use style="fill:#0000ff;stroke:#0000ff;stroke-width:0.5;" x="457.884782609" xlink:href="#m494be3f0a3" y="345.529543779"/>
     <use style="fill:#0000ff;stroke:#0000ff;stroke-width:0.5;" x="506.831086957" xlink:href="#m494be3f0a3" y="360.501950223"/>
     <use style="fill:#0000ff;stroke:#0000ff;stroke-width:0.5;" x="555.777391304" xlink:href="#m494be3f0a3" y="374.358049587"/>
     <use style="fill:#0000ff;stroke:#0000ff;stroke-width:0.5;" x="604.723695652" xlink:href="#m494be3f0a3" y="386.100670234"/>
    </g>
   </g>
   <g id="line2d_40">
    <path clip-path="url(#p11af33ec47)" d="
M115.261 48.7638
L164.207 65.6466
L213.153 77.359
L262.1 86.2873
L311.046 93.4853
L359.992 99.5073
L408.938 104.68
L457.885 109.21
L506.831 113.239
L555.777 116.866
L604.724 120.162" style="fill:none;stroke:#0000ff;stroke-dasharray:6.000000,6.000000;stroke-dashoffset:0.0;"/>
    <defs>
     <path d="
M0 5
C1.32602 5 2.5979 4.47317 3.53553 3.53553
C4.47317 2.5979 5 1.32602 5 0
C5 -1.32602 4.47317 -2.5979 3.53553 -3.53553
C2.5979 -4.47317 1.32602 -5 0 -5
C-1.32602 -5 -2.5979 -4.47317 -3.53553 -3.53553
C-4.47317 -2.5979 -5 -1.32602 -5 0
C-5 1.32602 -4.47317 2.5979 -3.53553 3.53553
C-2.5979 4.47317 -1.32602 5 0 5
z
" id="mf1f755ff79" style="stroke:#0000ff;stroke-width:0.5;"/>
    </defs>
    <g clip-path="url(#p11af33ec47)">
     <use style="fill:none;stroke:#0000ff;stroke-width:0.5;" x="115.260652174" xlink:href="#mf1f755ff79" y="48.7637702684"/>
     <use style="fill:none;stroke:#0000ff;stroke-width:0.5;" x="164.206956522" xlink:href="#mf1f755ff79" y="65.6465648933"/>
     <use style="fill:none;stroke:#0000ff;stroke-width:0.5;" x="213.15326087" xlink:href="#mf1f755ff79" y="77.3590417563"/>
     <use style="fill:none;stroke:#0000ff;stroke-width:0.5;" x="262.099565217" xlink:href="#mf1f755ff79" y="86.2872750236"/>
     <use style="fill:none;stroke:#0000ff;stroke-width:0.5;" x="311.045869565" xlink:href="#mf1f755ff79" y="93.4852547973"/>
     <use style="fill:none;stroke:#0000ff;stroke-width:0.5;" x="359.992173913" xlink:href="#mf1f755ff79" y="99.5072767468"/>
     <use style="fill:none;stroke:#0000ff;stroke-width:0.5;" x="408.938478261" xlink:href="#mf1f755ff79" y="104.679640518"/>
     <use style="fill:none;stroke:#0000ff;stroke-width:0.5;" x="457.884782609" xlink:href="#mf1f755ff79" y="109.210177256"/>
     <use style="fill:none;stroke:#0000ff;stroke-width:0.5;" x="506.831086957" xlink:href="#mf1f755ff79" y="113.239203512"/>
     <use style="fill:none;stroke:#0000ff;stroke-width:0.5;" x="555.777391304" xlink:href="#mf1f755ff79" y="116.865803156"/>
     <use style="fill:none;stroke:#0000ff;stroke-width:0.5;" x="604.723695652" xlink:href="#mf1f755ff79" y="120.162484882"/>
    </g>
   </g>
   <g id="patch_7">
    <path d="
M90.7875 44.64
L653.67 44.64" style="fill:none;stroke:#000000;stroke-linecap:square;stroke-linejoin:miter;"/>
   </g>
   <g id="patch_8">
    <path d="
M653.67 401.76
L653.67 44.64" style="fill:none;stroke:#000000;stroke-linecap:square;stroke-linejoin:miter;"/>
   </g>
   <g id="patch_9">
    <path d="
M90.7875 401.76
L653.67 401.76" style="fill:none;stroke:#000000;stroke-linecap:square;stroke-linejoin:miter;"/>
   </g>
   <g id="patch_10">
    <path d="
M90.7875 401.76
L90.7875 44.64" style="fill:none;stroke:#000000;stroke-linecap:square;stroke-linejoin:miter;"/>
   </g>
   <g id="matplotlib.axis_3">
    <g id="ytick_29">
     <g id="line2d_41">
      <defs>
       <path d="
M0 0
L-4 0" id="mcb0005524f" style="stroke:#000000;stroke-width:0.5;"/>
      </defs>
      <g>
       <use style="stroke:#000000;stroke-width:0.5;" x="653.67" xlink:href="#mcb0005524f" y="401.76"/>
      </g>
     </g>
     <g id="text_21">
      <!-- $\mathdefault{10^{-15}}$ -->
      <defs>
       <path d="
M4.89062 31.3906
L31.2031 31.3906
L31.2031 23.3906
L4.89062 23.3906
z
" id="BitstreamVeraSans-Roman-2d"/>
      </defs>
      <g style="fill:#0000ff;" transform="translate(657.67 406.9125)scale(0.16 -0.16)">
       <use transform="translate(0.0 0.465625)" xlink:href="#BitstreamVeraSans-Roman-31"/>
       <use transform="translate(63.623046875 0.465625)" xlink:href="#BitstreamVeraSans-Roman-30"/>
       <use transform="translate(127.24609375 52.965625)scale(0.7)" xlink:href="#BitstreamVeraSans-Roman-2d"/>
       <use transform="translate(152.504882812 52.965625)scale(0.7)" xlink:href="#BitstreamVeraSans-Roman-31"/>
       <use transform="translate(197.041015625 52.965625)scale(0.7)" xlink:href="#BitstreamVeraSans-Roman-35"/>
      </g>
     </g>
    </g>
    <g id="ytick_30">
     <g id="line2d_42">
      <g>
       <use style="stroke:#000000;stroke-width:0.5;" x="653.67" xlink:href="#mcb0005524f" y="374.289230769"/>
      </g>
     </g>
     <g id="text_22">
      <!-- $\mathdefault{10^{-14}}$ -->
      <g style="fill:#0000ff;" transform="translate(657.67 379.441730769)scale(0.16 -0.16)">
       <use transform="translate(0.0 0.465625)" xlink:href="#BitstreamVeraSans-Roman-31"/>
       <use transform="translate(63.623046875 0.465625)" xlink:href="#BitstreamVeraSans-Roman-30"/>
       <use transform="translate(127.24609375 52.965625)scale(0.7)" xlink:href="#BitstreamVeraSans-Roman-2d"/>
       <use transform="translate(152.504882812 52.965625)scale(0.7)" xlink:href="#BitstreamVeraSans-Roman-31"/>
       <use transform="translate(197.041015625 52.965625)scale(0.7)" xlink:href="#BitstreamVeraSans-Roman-34"/>
      </g>
     </g>
    </g>
    <g id="ytick_31">
     <g id="line2d_43">
      <g>
       <use style="stroke:#000000;stroke-width:0.5;" x="653.67" xlink:href="#mcb0005524f" y="346.818461538"/>
      </g>
     </g>
     <g id="text_23">
      <!-- $\mathdefault{10^{-13}}$ -->
      <g style="fill:#0000ff;" transform="translate(657.67 352.050961538)scale(0.16 -0.16)">
       <use transform="translate(0.0 0.546875)" xlink:href="#BitstreamVeraSans-Roman-31"/>
       <use transform="translate(63.623046875 0.546875)" xlink:href="#BitstreamVeraSans-Roman-30"/>
       <use transform="translate(127.24609375 53.046875)scale(0.7)" xlink:href="#BitstreamVeraSans-Roman-2d"/>
       <use transform="translate(152.504882812 53.046875)scale(0.7)" xlink:href="#BitstreamVeraSans-Roman-31"/>
       <use transform="translate(197.041015625 53.046875)scale(0.7)" xlink:href="#BitstreamVeraSans-Roman-33"/>
      </g>
     </g>
    </g>
    <g id="ytick_32">
     <g id="line2d_44">
      <g>
       <use style="stroke:#000000;stroke-width:0.5;" x="653.67" xlink:href="#mcb0005524f" y="319.347692308"/>
      </g>
     </g>
     <g id="text_24">
      <!-- $\mathdefault{10^{-12}}$ -->
      <g style="fill:#0000ff;" transform="translate(657.67 324.580192308)scale(0.16 -0.16)">
       <use transform="translate(0.0 0.546875)" xlink:href="#BitstreamVeraSans-Roman-31"/>
       <use transform="translate(63.623046875 0.546875)" xlink:href="#BitstreamVeraSans-Roman-30"/>
       <use transform="translate(127.24609375 53.046875)scale(0.7)" xlink:href="#BitstreamVeraSans-Roman-2d"/>
       <use transform="translate(152.504882812 53.046875)scale(0.7)" xlink:href="#BitstreamVeraSans-Roman-31"/>
       <use transform="translate(197.041015625 53.046875)scale(0.7)" xlink:href="#BitstreamVeraSans-Roman-32"/>
      </g>
     </g>
    </g>
    <g id="ytick_33">
     <g id="line2d_45">
      <g>
       <use style="stroke:#000000;stroke-width:0.5;" x="653.67" xlink:href="#mcb0005524f" y="291.876923077"/>
      </g>
     </g>
     <g id="text_25">
      <!-- $\mathdefault{10^{-11}}$ -->
      <g style="fill:#0000ff;" transform="translate(657.67 297.029423077)scale(0.16 -0.16)">
       <use transform="translate(0.0 0.465625)" xlink:href="#BitstreamVeraSans-Roman-31"/>
       <use transform="translate(63.623046875 0.465625)" xlink:href="#BitstreamVeraSans-Roman-30"/>
       <use transform="translate(127.24609375 52.965625)scale(0.7)" xlink:href="#BitstreamVeraSans-Roman-2d"/>
       <use transform="translate(152.504882812 52.965625)scale(0.7)" xlink:href="#BitstreamVeraSans-Roman-31"/>
       <use transform="translate(197.041015625 52.965625)scale(0.7)" xlink:href="#BitstreamVeraSans-Roman-31"/>
      </g>
     </g>
    </g>
    <g id="ytick_34">
     <g id="line2d_46">
      <g>
       <use style="stroke:#000000;stroke-width:0.5;" x="653.67" xlink:href="#mcb0005524f" y="264.406153846"/>
      </g>
     </g>
     <g id="text_26">
      <!-- $\mathdefault{10^{-10}}$ -->
      <g style="fill:#0000ff;" transform="translate(657.67 269.638653846)scale(0.16 -0.16)">
       <use transform="translate(0.0 0.546875)" xlink:href="#BitstreamVeraSans-Roman-31"/>
       <use transform="translate(63.623046875 0.546875)" xlink:href="#BitstreamVeraSans-Roman-30"/>
       <use transform="translate(127.24609375 53.046875)scale(0.7)" xlink:href="#BitstreamVeraSans-Roman-2d"/>
       <use transform="translate(152.504882812 53.046875)scale(0.7)" xlink:href="#BitstreamVeraSans-Roman-31"/>
       <use transform="translate(197.041015625 53.046875)scale(0.7)" xlink:href="#BitstreamVeraSans-Roman-30"/>
      </g>
     </g>
    </g>
    <g id="ytick_35">
     <g id="line2d_47">
      <g>
       <use style="stroke:#000000;stroke-width:0.5;" x="653.67" xlink:href="#mcb0005524f" y="236.935384615"/>
      </g>
     </g>
     <g id="text_27">
      <!-- $\mathdefault{10^{-9}}$ -->
      <g style="fill:#0000ff;" transform="translate(657.67 242.167884615)scale(0.16 -0.16)">
       <use transform="translate(0.0 0.546875)" xlink:href="#BitstreamVeraSans-Roman-31"/>
       <use transform="translate(63.623046875 0.546875)" xlink:href="#BitstreamVeraSans-Roman-30"/>
       <use transform="translate(127.24609375 53.046875)scale(0.7)" xlink:href="#BitstreamVeraSans-Roman-2d"/>
       <use transform="translate(152.504882812 53.046875)scale(0.7)" xlink:href="#BitstreamVeraSans-Roman-39"/>
      </g>
     </g>
    </g>
    <g id="ytick_36">
     <g id="line2d_48">
      <g>
       <use style="stroke:#000000;stroke-width:0.5;" x="653.67" xlink:href="#mcb0005524f" y="209.464615385"/>
      </g>
     </g>
     <g id="text_28">
      <!-- $\mathdefault{10^{-8}}$ -->
      <g style="fill:#0000ff;" transform="translate(657.67 214.697115385)scale(0.16 -0.16)">
       <use transform="translate(0.0 0.546875)" xlink:href="#BitstreamVeraSans-Roman-31"/>
       <use transform="translate(63.623046875 0.546875)" xlink:href="#BitstreamVeraSans-Roman-30"/>
       <use transform="translate(127.24609375 53.046875)scale(0.7)" xlink:href="#BitstreamVeraSans-Roman-2d"/>
       <use transform="translate(152.504882812 53.046875)scale(0.7)" xlink:href="#BitstreamVeraSans-Roman-38"/>
      </g>
     </g>
    </g>
    <g id="ytick_37">
     <g id="line2d_49">
      <g>
       <use style="stroke:#000000;stroke-width:0.5;" x="653.67" xlink:href="#mcb0005524f" y="181.993846154"/>
      </g>
     </g>
     <g id="text_29">
      <!-- $\mathdefault{10^{-7}}$ -->
      <g style="fill:#0000ff;" transform="translate(657.67 187.146346154)scale(0.16 -0.16)">
       <use transform="translate(0.0 0.465625)" xlink:href="#BitstreamVeraSans-Roman-31"/>
       <use transform="translate(63.623046875 0.465625)" xlink:href="#BitstreamVeraSans-Roman-30"/>
       <use transform="translate(127.24609375 52.965625)scale(0.7)" xlink:href="#BitstreamVeraSans-Roman-2d"/>
       <use transform="translate(152.504882812 52.965625)scale(0.7)" xlink:href="#BitstreamVeraSans-Roman-37"/>
      </g>
     </g>
    </g>
    <g id="ytick_38">
     <g id="line2d_50">
      <g>
       <use style="stroke:#000000;stroke-width:0.5;" x="653.67" xlink:href="#mcb0005524f" y="154.523076923"/>
      </g>
     </g>
     <g id="text_30">
      <!-- $\mathdefault{10^{-6}}$ -->
      <g style="fill:#0000ff;" transform="translate(657.67 159.755576923)scale(0.16 -0.16)">
       <use transform="translate(0.0 0.546875)" xlink:href="#BitstreamVeraSans-Roman-31"/>
       <use transform="translate(63.623046875 0.546875)" xlink:href="#BitstreamVeraSans-Roman-30"/>
       <use transform="translate(127.24609375 53.046875)scale(0.7)" xlink:href="#BitstreamVeraSans-Roman-2d"/>
       <use transform="translate(152.504882812 53.046875)scale(0.7)" xlink:href="#BitstreamVeraSans-Roman-36"/>
      </g>
     </g>
    </g>
    <g id="ytick_39">
     <g id="line2d_51">
      <g>
       <use style="stroke:#000000;stroke-width:0.5;" x="653.67" xlink:href="#mcb0005524f" y="127.052307692"/>
      </g>
     </g>
     <g id="text_31">
      <!-- $\mathdefault{10^{-5}}$ -->
      <g style="fill:#0000ff;" transform="translate(657.67 132.204807692)scale(0.16 -0.16)">
       <use transform="translate(0.0 0.465625)" xlink:href="#BitstreamVeraSans-Roman-31"/>
       <use transform="translate(63.623046875 0.465625)" xlink:href="#BitstreamVeraSans-Roman-30"/>
       <use transform="translate(127.24609375 52.965625)scale(0.7)" xlink:href="#BitstreamVeraSans-Roman-2d"/>
       <use transform="translate(152.504882812 52.965625)scale(0.7)" xlink:href="#BitstreamVeraSans-Roman-35"/>
      </g>
     </g>
    </g>
    <g id="ytick_40">
     <g id="line2d_52">
      <g>
       <use style="stroke:#000000;stroke-width:0.5;" x="653.67" xlink:href="#mcb0005524f" y="99.5815384615"/>
      </g>
     </g>
     <g id="text_32">
      <!-- $\mathdefault{10^{-4}}$ -->
      <g style="fill:#0000ff;" transform="translate(657.67 104.734038462)scale(0.16 -0.16)">
       <use transform="translate(0.0 0.465625)" xlink:href="#BitstreamVeraSans-Roman-31"/>
       <use transform="translate(63.623046875 0.465625)" xlink:href="#BitstreamVeraSans-Roman-30"/>
       <use transform="translate(127.24609375 52.965625)scale(0.7)" xlink:href="#BitstreamVeraSans-Roman-2d"/>
       <use transform="translate(152.504882812 52.965625)scale(0.7)" xlink:href="#BitstreamVeraSans-Roman-34"/>
      </g>
     </g>
    </g>
    <g id="ytick_41">
     <g id="line2d_53">
      <g>
       <use style="stroke:#000000;stroke-width:0.5;" x="653.67" xlink:href="#mcb0005524f" y="72.1107692308"/>
      </g>
     </g>
     <g id="text_33">
      <!-- $\mathdefault{10^{-3}}$ -->
      <g style="fill:#0000ff;" transform="translate(657.67 77.3432692308)scale(0.16 -0.16)">
       <use transform="translate(0.0 0.546875)" xlink:href="#BitstreamVeraSans-Roman-31"/>
       <use transform="translate(63.623046875 0.546875)" xlink:href="#BitstreamVeraSans-Roman-30"/>
       <use transform="translate(127.24609375 53.046875)scale(0.7)" xlink:href="#BitstreamVeraSans-Roman-2d"/>
       <use transform="translate(152.504882812 53.046875)scale(0.7)" xlink:href="#BitstreamVeraSans-Roman-33"/>
      </g>
     </g>
    </g>
    <g id="ytick_42">
     <g id="line2d_54">
      <g>
       <use style="stroke:#000000;stroke-width:0.5;" x="653.67" xlink:href="#mcb0005524f" y="44.64"/>
      </g>
     </g>
     <g id="text_34">
      <!-- $\mathdefault{10^{-2}}$ -->
      <g style="fill:#0000ff;" transform="translate(657.67 49.8725)scale(0.16 -0.16)">
       <use transform="translate(0.0 0.546875)" xlink:href="#BitstreamVeraSans-Roman-31"/>
       <use transform="translate(63.623046875 0.546875)" xlink:href="#BitstreamVeraSans-Roman-30"/>
       <use transform="translate(127.24609375 53.046875)scale(0.7)" xlink:href="#BitstreamVeraSans-Roman-2d"/>
       <use transform="translate(152.504882812 53.046875)scale(0.7)" xlink:href="#BitstreamVeraSans-Roman-32"/>
      </g>
     </g>
    </g>
    <g id="ytick_43">
     <g id="line2d_55">
      <defs>
       <path d="
M0 0
L-2 0" id="ma4f294b3af" style="stroke:#000000;stroke-width:0.5;"/>
      </defs>
      <g>
       <use style="stroke:#000000;stroke-width:0.5;" x="653.67" xlink:href="#ma4f294b3af" y="401.76"/>
      </g>
     </g>
    </g>
    <g id="ytick_44">
     <g id="line2d_56">
      <g>
       <use style="stroke:#000000;stroke-width:0.5;" x="653.67" xlink:href="#ma4f294b3af" y="374.289230769"/>
      </g>
     </g>
    </g>
    <g id="ytick_45">
     <g id="line2d_57">
      <g>
       <use style="stroke:#000000;stroke-width:0.5;" x="653.67" xlink:href="#ma4f294b3af" y="346.818461538"/>
      </g>
     </g>
    </g>
    <g id="ytick_46">
     <g id="line2d_58">
      <g>
       <use style="stroke:#000000;stroke-width:0.5;" x="653.67" xlink:href="#ma4f294b3af" y="319.347692308"/>
      </g>
     </g>
    </g>
    <g id="ytick_47">
     <g id="line2d_59">
      <g>
       <use style="stroke:#000000;stroke-width:0.5;" x="653.67" xlink:href="#ma4f294b3af" y="291.876923077"/>
      </g>
     </g>
    </g>
    <g id="ytick_48">
     <g id="line2d_60">
      <g>
       <use style="stroke:#000000;stroke-width:0.5;" x="653.67" xlink:href="#ma4f294b3af" y="264.406153846"/>
      </g>
     </g>
    </g>
    <g id="ytick_49">
     <g id="line2d_61">
      <g>
       <use style="stroke:#000000;stroke-width:0.5;" x="653.67" xlink:href="#ma4f294b3af" y="236.935384615"/>
      </g>
     </g>
    </g>
    <g id="ytick_50">
     <g id="line2d_62">
      <g>
       <use style="stroke:#000000;stroke-width:0.5;" x="653.67" xlink:href="#ma4f294b3af" y="209.464615385"/>
      </g>
     </g>
    </g>
    <g id="ytick_51">
     <g id="line2d_63">
      <g>
       <use style="stroke:#000000;stroke-width:0.5;" x="653.67" xlink:href="#ma4f294b3af" y="181.993846154"/>
      </g>
     </g>
    </g>
    <g id="ytick_52">
     <g id="line2d_64">
      <g>
       <use style="stroke:#000000;stroke-width:0.5;" x="653.67" xlink:href="#ma4f294b3af" y="154.523076923"/>
      </g>
     </g>
    </g>
    <g id="ytick_53">
     <g id="line2d_65">
      <g>
       <use style="stroke:#000000;stroke-width:0.5;" x="653.67" xlink:href="#ma4f294b3af" y="127.052307692"/>
      </g>
     </g>
    </g>
    <g id="ytick_54">
     <g id="line2d_66">
      <g>
       <use style="stroke:#000000;stroke-width:0.5;" x="653.67" xlink:href="#ma4f294b3af" y="99.5815384615"/>
      </g>
     </g>
    </g>
    <g id="ytick_55">
     <g id="line2d_67">
      <g>
       <use style="stroke:#000000;stroke-width:0.5;" x="653.67" xlink:href="#ma4f294b3af" y="72.1107692308"/>
      </g>
     </g>
    </g>
    <g id="ytick_56">
     <g id="line2d_68">
      <g>
       <use style="stroke:#000000;stroke-width:0.5;" x="653.67" xlink:href="#ma4f294b3af" y="44.64"/>
      </g>
     </g>
    </g>
    <g id="text_35">
     <!-- $\lambda_{min}$ -->
     <defs>
      <path d="
M7.8125 7.17188
Q7.8125 9.03125 8.59375 11.0781
L16.7031 32.625
Q18.0156 36.2812 18.0156 38.625
Q18.0156 41.6094 15.8281 41.6094
Q11.8594 41.6094 9.29688 37.5312
Q6.73438 33.4531 5.51562 28.4219
Q5.32812 27.7812 4.6875 27.7812
L3.51562 27.7812
Q2.6875 27.7812 2.6875 28.7188
L2.6875 29
Q4.29688 34.9688 7.60938 39.5781
Q10.9375 44.1875 16.0156 44.1875
Q19.5781 44.1875 22.0469 41.8438
Q24.5156 39.5 24.5156 35.8906
Q24.5156 34.0312 23.6875 31.9844
L15.5781 10.5
Q14.2031 7.17188 14.2031 4.5
Q14.2031 1.51562 16.5 1.51562
Q20.4062 1.51562 23.0156 5.6875
Q25.6406 9.85938 26.7031 14.7031
Q26.9062 15.2812 27.4844 15.2812
L28.7188 15.2812
Q29.1094 15.2812 29.3438 15.0156
Q29.5938 14.75 29.5938 14.4062
Q29.5938 14.3125 29.5 14.1094
Q28.125 8.45312 24.7344 3.65625
Q21.3438 -1.125 16.3125 -1.125
Q12.7969 -1.125 10.2969 1.29688
Q7.8125 3.71875 7.8125 7.17188
M19.0938 60.5938
Q19.0938 62.7031 20.8438 64.4062
Q22.6094 66.1094 24.7031 66.1094
Q26.4219 66.1094 27.5156 65.0625
Q28.6094 64.0156 28.6094 62.4062
Q28.6094 60.1562 26.8281 58.4688
Q25.0469 56.7812 22.9062 56.7812
Q21.2969 56.7812 20.1875 57.875
Q19.0938 58.9844 19.0938 60.5938" id="Cmmi10-69"/>
      <path d="
M5.07812 1.70312
Q5.07812 3.17188 6.39062 4.5
L34.5156 32.0781
L24.6094 59.9062
Q23.4375 63.0938 22.1406 64.9375
Q20.8438 66.7969 18.4062 66.7969
Q17.2812 66.7969 17.2812 68.1094
Q17.3906 68.7031 17.7812 69.0469
Q18.1719 69.3906 18.7969 69.3906
Q29.2969 69.3906 31.5 63.1875
L51.8125 6.5
Q53.125 2.25 54.5 0.78125
Q54.9844 0.046875 54.9844 -0.203125
Q54.9844 -1.125 54.2031 -1.125
L48.7812 -1.125
Q46.2969 -0.390625 44.8281 3.21875
L35.6875 28.8125
L11.5312 0.390625
Q9.71875 -1.3125 8.29688 -1.3125
Q7.03125 -1.3125 6.04688 -0.4375
Q5.07812 0.4375 5.07812 1.70312" id="Cmmi10-b8"/>
      <path d="
M7.71875 1.70312
Q7.71875 2.29688 7.8125 2.59375
L15.2812 32.4219
Q16.0156 35.2031 16.0156 37.3125
Q16.0156 41.6094 13.0938 41.6094
Q9.96875 41.6094 8.45312 37.8594
Q6.9375 34.125 5.51562 28.4219
Q5.51562 28.125 5.21875 27.9531
Q4.9375 27.7812 4.6875 27.7812
L3.51562 27.7812
Q3.17188 27.7812 2.92188 28.1406
Q2.6875 28.5156 2.6875 28.8125
Q3.76562 33.1562 4.76562 36.1719
Q5.76562 39.2031 7.89062 41.6875
Q10.0156 44.1875 13.1875 44.1875
Q16.9375 44.1875 19.8125 41.8125
Q22.7031 39.4531 22.7031 35.7969
Q25.6875 39.7031 29.6875 41.9375
Q33.6875 44.1875 38.1875 44.1875
Q42.9219 44.1875 46.3594 41.7656
Q49.8125 39.3594 49.8125 34.9062
Q52.875 39.2656 57 41.7188
Q61.1406 44.1875 66.0156 44.1875
Q71.1875 44.1875 74.3281 41.375
Q77.4844 38.5781 77.4844 33.4062
Q77.4844 29.2969 75.6562 23.4844
Q73.8281 17.6719 71.0938 10.5
Q69.6719 7.03125 69.6719 4.5
Q69.6719 1.51562 72.0156 1.51562
Q75.9219 1.51562 78.5156 5.70312
Q81.1094 9.90625 82.1719 14.7031
Q82.4688 15.2812 83.0156 15.2812
L84.1875 15.2812
Q84.5781 15.2812 84.8438 15.0156
Q85.1094 14.75 85.1094 14.4062
Q85.1094 14.3125 85.0156 14.1094
Q83.6406 8.45312 80.25 3.65625
Q76.8594 -1.125 71.7812 -1.125
Q68.2656 -1.125 65.7656 1.29688
Q63.2812 3.71875 63.2812 7.17188
Q63.2812 8.9375 64.1094 11.0781
Q66.9375 18.6094 68.8125 24.5156
Q70.7031 30.4219 70.7031 34.9062
Q70.7031 37.7031 69.5781 39.6562
Q68.4531 41.6094 65.8281 41.6094
Q60.3594 41.6094 56.3438 38.25
Q52.3438 34.9062 49.4219 29.3906
Q49.2188 28.4219 49.125 27.875
L42.6719 2.20312
Q42.3281 0.828125 41.125 -0.140625
Q39.9375 -1.125 38.4844 -1.125
Q37.3125 -1.125 36.4062 -0.34375
Q35.5 0.4375 35.5 1.70312
Q35.5 2.29688 35.5938 2.59375
L42 28.0781
Q43.0156 32.1719 43.0156 34.9062
Q43.0156 37.7031 41.8594 39.6562
Q40.7188 41.6094 37.9844 41.6094
Q34.3281 41.6094 31.25 39.9844
Q28.1719 38.375 25.875 35.7188
Q23.5781 33.0625 21.6875 29.3906
L14.8906 2.20312
Q14.5469 0.828125 13.3438 -0.140625
Q12.1562 -1.125 10.6875 -1.125
Q9.46875 -1.125 8.59375 -0.34375
Q7.71875 0.4375 7.71875 1.70312" id="Cmmi10-6d"/>
     </defs>
     <g style="fill:#0000ff;" transform="translate(715.95 238.08)rotate(-90.0)scale(0.16 -0.16)">
      <use transform="translate(0.0 0.609375)" xlink:href="#Cmmi10-b8"/>
      <use transform="translate(58.30078125 -24.9)scale(0.7)" xlink:href="#Cmmi10-6d"/>
      <use transform="translate(119.755859375 -24.9)scale(0.7)" xlink:href="#Cmmi10-69"/>
      <use transform="translate(143.852539062 -24.9)scale(0.7)" xlink:href="#Cmmi10-6e"/>
     </g>
    </g>
   </g>
  </g>
  <g id="legend_1">
   <g id="patch_11">
    <path d="
M554.982 289.092
L644.07 289.092
L644.07 165.84
L554.982 165.84
z
" style="fill:#ffffff;stroke:#000000;stroke-linejoin:miter;"/>
   </g>
   <g id="line2d_69">
    <path d="
M568.422 181.389
L595.302 181.389" style="fill:none;stroke:#ff0000;stroke-dasharray:6.000000,6.000000;stroke-dashoffset:0.0;"/>
   </g>
   <g id="line2d_70">
    <g>
     <use style="fill:#ff0000;stroke:#ff0000;stroke-width:0.5;" x="568.422" xlink:href="#m5d198760ff" y="181.389"/>
     <use style="fill:#ff0000;stroke:#ff0000;stroke-width:0.5;" x="595.302" xlink:href="#m5d198760ff" y="181.389"/>
    </g>
   </g>
   <g id="text_36">
    <!-- $\kappa_{P}$ -->
    <defs>
     <path d="
M4.89062 0
Q3.90625 0 3.90625 1.3125
Q3.95312 1.5625 4.09375 2.17188
Q4.25 2.78125 4.51562 3.14062
Q4.78125 3.51562 5.17188 3.51562
Q11.2812 3.51562 13.7188 4.20312
Q14.9844 4.64062 15.5781 6.89062
L29.2969 61.8125
Q29.5 62.7969 29.5 63.1875
Q29.5 64.2656 28.3281 64.4062
Q26.4219 64.7969 21.0938 64.7969
Q20.125 64.7969 20.125 66.1094
Q20.1719 66.3594 20.3125 66.9688
Q20.4531 67.5781 20.7188 67.9375
Q21 68.3125 21.3906 68.3125
L55.9062 68.3125
Q60.6406 68.3125 65.0781 66.625
Q69.5312 64.9375 72.3594 61.4688
Q75.2031 58.0156 75.2031 53.0781
Q75.2031 46.7344 70.7344 41.75
Q66.2656 36.7656 59.5938 33.9844
Q52.9375 31.2031 46.6875 31.2031
L30.4219 31.2031
L24.3125 6.5
Q24.125 5.51562 24.125 5.07812
Q24.125 4.6875 24.2344 4.42188
Q24.3594 4.15625 24.5781 4.07812
Q24.8125 4 25.2969 3.90625
Q27.2031 3.51562 32.5156 3.51562
Q33.5 3.51562 33.5 2.20312
Q33.1562 0.78125 32.9531 0.390625
Q32.7656 0 31.7812 0
z

M30.9062 34.1875
L44.9219 34.1875
Q54.6406 34.1875 59.7188 39.4062
Q62.3125 42 63.9375 46.875
Q65.5781 51.7656 65.5781 55.7188
Q65.5781 60.6406 61.8125 62.7188
Q58.0625 64.7969 52.4844 64.7969
L42.9219 64.7969
Q40.1875 64.7969 39.2969 64.3281
Q38.4219 63.875 37.7031 61.375
z
" id="Cmmi10-50"/>
    </defs>
    <g transform="translate(616.422 188.109)scale(0.192 -0.192)">
     <use transform="translate(0.0 0.8125)" xlink:href="#Cmmi10-2219"/>
     <use transform="translate(57.6171875 -24.696875)scale(0.7)" xlink:href="#Cmmi10-50"/>
    </g>
   </g>
   <g id="line2d_71">
    <path d="
M568.422 210.57
L595.302 210.57" style="fill:none;stroke:#ff0000;stroke-dasharray:6.000000,6.000000;stroke-dashoffset:0.0;"/>
   </g>
   <g id="line2d_72">
    <g>
     <use style="fill:none;stroke:#ff0000;stroke-width:0.5;" x="568.422" xlink:href="#mbe04e61796" y="210.57"/>
     <use style="fill:none;stroke:#ff0000;stroke-width:0.5;" x="595.302" xlink:href="#mbe04e61796" y="210.57"/>
    </g>
   </g>
   <g id="text_37">
    <!-- $\kappa_{S}$ -->
    <defs>
     <path d="
M6.10938 -2.20312
Q5.8125 -2.20312 5.5625 -1.85938
Q5.32812 -1.51562 5.32812 -1.21875
L11.0781 22.125
Q11.2812 22.7031 11.9219 22.7031
L13.0938 22.7031
Q13.4844 22.7031 13.7031 22.4062
Q13.9219 22.125 13.9219 21.6875
Q13.0938 18.2656 13.0938 15.5781
Q13.0938 8.34375 18.0625 4.82812
Q23.0469 1.3125 30.6094 1.3125
Q33.8906 1.3125 37.0625 2.92188
Q40.2344 4.54688 42.5938 7.125
Q44.9688 9.71875 46.375 12.9062
Q47.7969 16.1094 47.7969 19.3906
Q47.7969 22.9062 45.9375 25.6562
Q44.0938 28.4219 40.8281 29.2031
L28.6094 32.4219
Q23.6875 33.7344 20.75 37.7188
Q17.8281 41.7031 17.8281 46.6875
Q17.8281 52.6875 21.3906 58.25
Q24.9531 63.8125 30.6875 67.1562
Q36.4219 70.5156 42.3906 70.5156
Q46.9688 70.5156 50.7969 68.8281
Q54.6406 67.1406 56.6875 63.4844
L62.4062 70.2188
Q62.9844 70.5156 63.0938 70.5156
L63.7188 70.5156
Q64.1094 70.5156 64.3438 70.1719
Q64.5938 69.8281 64.5938 69.4844
L58.7969 46.2969
Q58.6406 45.6094 58.0156 45.6094
L56.7812 45.6094
Q55.9062 45.6094 55.9062 46.6875
Q56.3906 49.8594 56.3906 52.2031
Q56.3906 56.8438 54.7969 60.2812
Q53.2188 63.7188 50.0156 65.5
Q46.8281 67.2812 42.0938 67.2812
Q38.0938 67.2812 34.125 64.9844
Q30.1719 62.7031 27.7344 58.8906
Q25.2969 55.0781 25.2969 50.9844
Q25.2969 47.75 27.1719 45.2656
Q29.0469 42.7812 32.1719 41.8906
L44.3906 38.7188
Q47.7031 37.8438 50.1719 35.625
Q52.6406 33.4062 53.9062 30.3438
Q55.1719 27.2969 55.1719 23.6875
Q55.1719 18.9531 53.1719 14.3281
Q51.1719 9.71875 47.5781 5.90625
Q44 2.09375 39.4531 -0.046875
Q34.9062 -2.20312 30.1719 -2.20312
Q18.2656 -2.20312 13.0938 4.78125
L7.51562 -1.90625
Q6.9375 -2.20312 6.78125 -2.20312
z
" id="Cmmi10-53"/>
    </defs>
    <g transform="translate(616.422 217.29)scale(0.192 -0.192)">
     <use transform="translate(0.0 0.8125)" xlink:href="#Cmmi10-2219"/>
     <use transform="translate(57.6171875 -24.696875)scale(0.7)" xlink:href="#Cmmi10-53"/>
    </g>
   </g>
   <g id="line2d_73">
    <path d="
M568.422 240.135
L595.302 240.135" style="fill:none;stroke:#0000ff;stroke-dasharray:6.000000,6.000000;stroke-dashoffset:0.0;"/>
   </g>
   <g id="line2d_74">
    <g>
     <use style="fill:#0000ff;stroke:#0000ff;stroke-width:0.5;" x="568.422" xlink:href="#m494be3f0a3" y="240.135"/>
     <use style="fill:#0000ff;stroke:#0000ff;stroke-width:0.5;" x="595.302" xlink:href="#m494be3f0a3" y="240.135"/>
    </g>
   </g>
   <g id="text_38">
    <!-- $\lambda_{P}$ -->
    <g transform="translate(616.422 246.855)scale(0.192 -0.192)">
     <use transform="translate(0.0 0.609375)" xlink:href="#Cmmi10-b8"/>
     <use transform="translate(58.30078125 -24.9)scale(0.7)" xlink:href="#Cmmi10-50"/>
    </g>
   </g>
   <g id="line2d_75">
    <path d="
M568.422 269.316
L595.302 269.316" style="fill:none;stroke:#0000ff;stroke-dasharray:6.000000,6.000000;stroke-dashoffset:0.0;"/>
   </g>
   <g id="line2d_76">
    <g>
     <use style="fill:none;stroke:#0000ff;stroke-width:0.5;" x="568.422" xlink:href="#mf1f755ff79" y="269.316"/>
     <use style="fill:none;stroke:#0000ff;stroke-width:0.5;" x="595.302" xlink:href="#mf1f755ff79" y="269.316"/>
    </g>
   </g>
   <g id="text_39">
    <!-- $\lambda_{S}$ -->
    <g transform="translate(616.422 276.036)scale(0.192 -0.192)">
     <use transform="translate(0.0 0.609375)" xlink:href="#Cmmi10-b8"/>
     <use transform="translate(58.30078125 -24.9)scale(0.7)" xlink:href="#Cmmi10-53"/>
    </g>
   </g>
  </g>
 </g>
 <defs>
  <clipPath id="p11af33ec47">
   <rect height="357.12" width="562.8825" x="90.7875" y="44.64"/>
  </clipPath>
 </defs>
</svg>
